HIERARCHY
ROOT Hips
{
	OFFSET 0.00000 0.00000 0.00000
	CHANNELS 6 Xposition Yposition Zposition Zrotation Yrotation Xrotation 
	JOINT RightUpLegDummy
	{
		OFFSET 0 0 0
		CHANNELS 3 Zrotation Yrotation Xrotation
		JOINT RightUpLeg
		{
			OFFSET -3.52197 -3.41223 0.04002
			CHANNELS 3 Zrotation Yrotation Xrotation
			JOINT RightLeg
			{
				OFFSET 0.00006 -17.42390 1.60435
				CHANNELS 3 Zrotation Yrotation Xrotation
				JOINT RightFoot
				{
					OFFSET 0.06154 -16.50078 -1.63900
					CHANNELS 3 Zrotation Yrotation Xrotation
					JOINT RightToes
					{
						OFFSET 0.00298 -1.73825 3.34613
						CHANNELS 3 Zrotation Yrotation Xrotation
						End Site
						{
							OFFSET 0.00480 -0.05416 3.85043
						}
					}
				}
			}
		}
	}
	JOINT SpineDummy
	{
		OFFSET 0 0 0
		CHANNELS 3 Zrotation Yrotation Xrotation
		JOINT Spine
		{
			OFFSET 0.00000 4.68130 0.00000
			CHANNELS 3 Zrotation Yrotation Xrotation
			JOINT Spine1
			{
				OFFSET -0.00000 10.10138 0.05002
				CHANNELS 3 Zrotation Yrotation Xrotation
				JOINT HEadDummy
				{
					OFFSET 0 0 0
					CHANNELS 3 Zrotation Yrotation Xrotation
					JOINT Head
					{
						OFFSET -0.00000 3.43865 0.00438
						CHANNELS 3 Zrotation Yrotation Xrotation
						End Site
						{
							OFFSET -0.11417 5.02924 0.98962
						}
					}
				}
				JOINT LeftShoulder1Dummy
				{
					OFFSET 0 0 0
					CHANNELS 3 Zrotation Yrotation Xrotation
					JOINT LeftShoulder1
					{
						OFFSET 3.53937 -0.14262 -0.08662
						CHANNELS 3 Zrotation Yrotation Xrotation
						JOINT LeftArm
						{
							OFFSET 4.04833 -0.00133 0.12681
							CHANNELS 3 Zrotation Yrotation Xrotation
							JOINT LeftForeArm
							{
								OFFSET 10.33880 -0.01036 -0.55515
								CHANNELS 3 Zrotation Yrotation Xrotation
								JOINT LeftHand
								{
									OFFSET 8.69677 0.07543 0.40060
									CHANNELS 3 Zrotation Yrotation Xrotation
									End Site
									{
										OFFSET 5.28377 -0.21905 0.59205
									}
								}
							}
						}
					}
				}
				JOINT RightShoulderDummy
				{
					OFFSET 0 0 0
					CHANNELS 3 Zrotation Yrotation Xrotation
					JOINT RightShoulder
					{
						OFFSET -3.53937 -0.14262 -0.08660
						CHANNELS 3 Zrotation Yrotation Xrotation
						JOINT RightArm
						{
							OFFSET -4.04833 -0.00133 0.12683
							CHANNELS 3 Zrotation Yrotation Xrotation
							JOINT RightForeArm
							{
								OFFSET -10.37987 -0.01039 -0.55511
								CHANNELS 3 Zrotation Yrotation Xrotation
								JOINT RightHand
								{
									OFFSET -8.67398 0.07538 0.40058
									CHANNELS 3 Zrotation Yrotation Xrotation
									End Site
									{
										OFFSET -5.24810 -0.21916 0.59204
									}
								}
							}
						}
					}
				}
			}
		}
	}
	JOINT LeftUpLegDummy
	{
		OFFSET 0 0 0
		CHANNELS 3 Zrotation Yrotation Xrotation
		JOINT LeftUpLeg
		{
			OFFSET 3.52197 -3.41223 0.04002
			CHANNELS 3 Zrotation Yrotation Xrotation
			JOINT LeftLeg
			{
				OFFSET -0.00012 -17.42399 1.60337
				CHANNELS 3 Zrotation Yrotation Xrotation
				JOINT LeftFoot
				{
					OFFSET -0.09972 -16.50070 -1.63802
					CHANNELS 3 Zrotation Yrotation Xrotation
					JOINT LeftToes
					{
						OFFSET -0.01575 -1.73823 3.34611
						CHANNELS 3 Zrotation Yrotation Xrotation
						End Site
						{
							OFFSET 0.03150 -0.01868 3.85031
						}
					}
				}
			}
		}
	}
}
MOTION
Frames: 17
Frame Time: 0.033333
63.6062 39.4809 -4.8133 -10.7347 47.1240 -2.3810 0.0000 0.0000 0.0000 -1.7043 -14.1300 -7.6126 -2.7752 -5.5059 19.4059 20.8930 -3.9408 10.0064 -0.0000 -0.0000 0.0000 0.0000 0.0000 0.0000 -11.0562 0.6754 -7.6162 1.5508 0.5172 24.8137 0.0000 0.0000 0.0000 -3.8002 30.9559 -20.5908 0.0000 0.0000 0.0000 -16.6272 -3.6001 1.6575 -48.7242 -20.2996 22.1780 -177.7206 -62.3964 163.7838 1.6641 0.0308 -0.0765 0.0000 0.0000 0.0000 19.6445 2.2215 1.5042 58.9459 9.3050 29.8270 0.6569 29.4961 -0.8823 -5.5736 2.6157 -0.3619 0.0000 0.0000 0.0000 2.6741 4.6358 -6.8421 0.9610 24.9717 2.9582 4.3563 -0.3138 -2.7118 -0.0000 0.0000 -0.0000
63.4260 39.4432 -4.8620 -10.4208 47.4797 -2.1802 0.0000 0.0000 0.0000 -1.8428 -14.0151 -8.6437 -2.8663 -5.3020 21.0222 20.4922 -3.8255 9.8020 -0.0000 -0.0000 0.0000 0.0000 0.0000 0.0000 -11.3861 0.5879 -6.9891 1.4564 0.4204 24.4583 0.0000 0.0000 0.0000 -3.9172 30.7983 -20.9915 0.0000 0.0000 0.0000 -16.5618 -3.7164 1.6802 -48.4322 -20.6338 24.1794 -177.7303 -62.4576 163.9568 1.9242 -0.1141 -0.0895 0.0000 0.0000 0.0000 19.6854 2.1992 1.5018 59.1015 9.1598 29.1654 0.6537 29.6403 -0.8075 -5.1174 2.1845 -0.3145 0.0000 0.0000 0.0000 2.5346 4.6066 -7.2726 1.0043 24.6673 3.2710 4.2599 -0.3090 -2.6260 -0.0000 0.0000 -0.0000
63.2152 39.4128 -4.9045 -10.3234 47.9869 -2.0468 0.0000 0.0000 0.0000 -1.8207 -13.6358 -9.6849 -2.8972 -5.0435 22.4510 20.0088 -3.7072 9.6594 -0.0000 -0.0000 0.0000 0.0000 0.0000 0.0000 -11.6876 0.5030 -6.4066 1.4890 0.2728 24.1756 0.0000 0.0000 0.0000 -4.2434 30.6176 -21.5984 0.0000 0.0000 0.0000 -16.4502 -3.9959 1.7375 -48.4853 -21.0645 25.9323 -177.6972 -62.4411 163.5456 1.7503 -0.0387 -0.0809 0.0000 0.0000 0.0000 19.7073 2.2063 1.4998 59.2103 9.0872 28.7336 0.6559 29.6745 -0.8438 -5.2430 2.0810 -0.3192 0.0000 0.0000 0.0000 2.5717 4.7497 -7.9302 1.0007 24.0585 3.7216 4.1464 -0.3048 -2.5160 -0.0000 0.0000 -0.0000
62.9921 39.3899 -4.9421 -10.3433 48.6783 -2.0072 0.0000 0.0000 0.0000 -1.8111 -13.0471 -10.5875 -2.7385 -4.4994 23.7241 19.6629 -3.6197 9.5361 -0.0000 -0.0000 0.0000 0.0000 0.0000 0.0000 -11.9525 0.3814 -5.8805 1.6013 0.0531 24.0475 0.0000 0.0000 0.0000 -4.6906 30.4087 -22.2018 0.0000 0.0000 0.0000 -16.3313 -4.2943 1.7980 -48.7040 -21.6414 27.2975 -177.6792 -62.3437 163.2546 1.4136 0.1214 -0.0646 0.0000 0.0000 0.0000 19.6379 2.2335 1.4986 59.3078 9.1642 28.8117 0.6647 29.5157 -1.0225 -5.7153 2.2886 -0.3581 0.0000 0.0000 0.0000 2.6435 4.8581 -8.5953 0.9944 23.3347 4.0940 4.0678 -0.3060 -2.3430 -0.0000 0.0000 -0.0000
62.7708 39.3683 -4.9759 -10.3622 49.4928 -2.1035 0.0000 0.0000 0.0000 -1.9419 -12.4196 -11.2070 -2.3397 -3.6008 24.9612 19.4685 -3.5486 9.3384 -0.0000 -0.0000 0.0000 0.0000 0.0000 0.0000 -12.0691 0.2594 -5.2839 1.5823 -0.1319 23.9816 0.0000 0.0000 0.0000 -4.9198 30.0921 -22.5174 0.0000 0.0000 0.0000 -16.2041 -4.4462 1.8237 -48.7990 -22.4336 28.3239 -177.6922 -62.1327 163.2398 1.2567 0.2101 -0.0574 0.0000 0.0000 0.0000 19.5973 2.2276 1.4952 59.3422 9.2840 29.0906 0.6754 29.2895 -1.2458 -6.0525 2.4986 -0.3896 0.0000 0.0000 0.0000 2.6301 4.7667 -9.0804 1.1046 22.6981 4.3543 4.0184 -0.3098 -2.1575 -0.0000 0.0000 -0.0000
62.5491 39.3439 -4.9990 -10.4352 50.3000 -2.3344 0.0000 0.0000 0.0000 -2.0918 -11.7972 -11.5201 -1.8848 -2.7037 26.0710 19.2317 -3.4598 9.0783 -0.0000 -0.0000 0.0000 0.0000 0.0000 0.0000 -11.9386 0.1890 -4.7400 1.3269 -0.1778 24.0228 0.0000 0.0000 0.0000 -4.8420 29.6420 -22.5297 0.0000 0.0000 0.0000 -15.9500 -4.4698 1.8105 -49.0135 -23.3988 29.0364 -177.7047 -61.8685 163.1633 1.1822 0.2399 -0.0541 0.0000 0.0000 0.0000 19.7127 2.1653 1.4851 59.2169 9.3414 29.2060 0.6803 29.2222 -1.3437 -6.2027 2.6325 -0.4059 0.0000 0.0000 0.0000 2.6554 4.7083 -9.5469 1.2851 21.9974 4.8210 3.9915 -0.3091 -2.1223 -0.0000 0.0000 -0.0000
62.3290 39.3191 -5.0028 -10.5142 50.9418 -2.5543 0.0000 0.0000 0.0000 -2.2252 -11.0975 -11.5468 -1.6937 -2.3234 26.8183 18.8015 -3.3436 8.8582 -0.0000 -0.0000 0.0000 0.0000 0.0000 0.0000 -11.7809 0.1834 -4.4903 1.0767 -0.1334 24.2778 0.0000 0.0000 0.0000 -4.6956 29.2262 -22.4119 0.0000 0.0000 0.0000 -15.6372 -4.4518 1.7837 -49.6013 -24.3047 29.3281 -177.7036 -61.6133 162.9356 1.0033 0.2774 -0.0462 0.0000 0.0000 0.0000 19.9149 2.1133 1.4821 58.9241 9.3898 29.2264 0.6813 29.2948 -1.3550 -6.2874 2.7133 -0.4155 0.0000 0.0000 0.0000 2.7944 4.8912 -10.0947 1.3485 21.1857 5.5321 4.0016 -0.3052 -2.2358 -0.0000 0.0000 -0.0000
62.1270 39.3020 -4.9845 -10.3298 51.3048 -2.5559 0.0000 0.0000 0.0000 -2.5590 -10.2762 -11.2562 -1.9409 -2.6837 27.1025 18.1224 -3.1839 8.6351 -0.0000 -0.0000 0.0000 0.0000 0.0000 0.0000 -11.8867 0.2386 -4.5771 1.0453 -0.0700 24.6881 0.0000 0.0000 0.0000 -4.5935 28.9971 -22.1834 0.0000 0.0000 0.0000 -15.5600 -4.3963 1.7656 -50.1207 -24.9267 29.0921 -177.7020 -61.3448 162.7067 0.8816 0.3008 -0.0409 0.0000 0.0000 0.0000 20.0812 2.1403 1.4980 58.5823 9.5327 29.3790 0.6866 29.2074 -1.4618 -6.2077 2.6477 -0.4070 0.0000 0.0000 0.0000 2.8720 5.0919 -10.4302 1.2422 20.6687 5.9474 3.9883 -0.3053 -2.2094 -0.0000 0.0000 -0.0000
61.9502 39.3042 -4.9442 -9.8631 51.4736 -2.3647 0.0000 0.0000 0.0000 -3.1322 -9.3950 -10.6269 -2.5100 -3.5921 26.9579 17.1816 -2.9427 8.1592 -0.0000 -0.0000 0.0000 0.0000 0.0000 0.0000 -12.0694 0.3312 -4.9068 1.0386 0.0576 25.1387 0.0000 0.0000 0.0000 -4.3390 28.8606 -21.7461 0.0000 0.0000 0.0000 -15.8024 -4.3289 1.7680 -50.0192 -25.2953 28.3941 -177.6928 -61.1019 162.3868 1.0502 0.2767 -0.0483 0.0000 0.0000 0.0000 20.1810 2.1840 1.5148 58.3907 9.7462 29.5757 0.6925 28.7925 -1.6150 -5.9520 2.4761 -0.3818 0.0000 0.0000 0.0000 2.7998 5.0551 -10.3242 1.0676 20.6469 5.6527 3.8370 -0.3095 -1.7963 -0.0000 0.0000 -0.0000
61.7813 39.3326 -4.8845 -9.5300 51.7513 -2.2689 0.0000 0.0000 0.0000 -3.6054 -8.5812 -9.7142 -3.1029 -4.6253 26.3857 16.1386 -2.6368 7.2921 -0.0000 -0.0000 0.0000 0.0000 0.0000 0.0000 -11.9302 0.3962 -5.3856 0.8993 0.2234 25.5900 0.0000 0.0000 0.0000 -3.8482 28.5944 -21.1603 0.0000 0.0000 0.0000 -16.1194 -4.3652 1.7991 -49.5060 -25.5691 27.4237 -177.6560 -61.0082 161.8490 1.4142 0.2533 -0.0642 0.0000 0.0000 0.0000 20.1469 2.1285 1.4983 58.5081 9.8834 29.5427 0.6882 28.3146 -1.5894 -5.8016 2.4423 -0.3702 0.0000 0.0000 0.0000 2.7843 4.9260 -10.0106 0.8422 20.6168 4.8869 3.5813 -0.3151 -1.0802 -0.0000 0.0000 -0.0000
61.6001 39.3766 -4.8141 -9.5342 52.3453 -2.3915 0.0000 0.0000 0.0000 -3.7908 -7.9713 -8.6056 -3.4914 -5.4511 25.4314 15.2771 -2.3614 6.3108 -0.0000 -0.0000 0.0000 0.0000 0.0000 0.0000 -11.5979 0.3666 -5.8363 0.9017 0.2229 25.9358 0.0000 0.0000 0.0000 -3.4224 28.2219 -20.6658 0.0000 0.0000 0.0000 -16.3147 -4.4933 1.8426 -49.1623 -25.7712 26.2885 -177.6119 -61.0093 161.3011 1.7150 0.2904 -0.0772 0.0000 0.0000 0.0000 19.8994 2.0185 1.4563 58.8512 9.8178 29.3069 0.6786 28.1975 -1.4205 -5.8592 2.5672 -0.3794 0.0000 0.0000 0.0000 2.9505 4.9276 -9.8132 0.5271 20.1032 4.1245 3.4043 -0.3265 -0.3237 -0.0000 0.0000 -0.0000
61.4049 39.4111 -4.7400 -9.4855 53.0736 -2.4641 0.0000 0.0000 0.0000 -3.9759 -7.6568 -7.4024 -3.7292 -6.1132 24.3365 14.6480 -2.1855 5.7106 -0.0000 -0.0000 0.0000 0.0000 0.0000 0.0000 -11.5126 0.2517 -6.0903 1.1659 0.0124 26.0148 0.0000 0.0000 0.0000 -3.3063 27.9925 -20.4266 0.0000 0.0000 0.0000 -16.3730 -4.4873 1.8455 -49.1016 -25.8467 25.0019 -177.5943 -60.8673 160.9668 1.8636 0.3650 -0.0831 0.0000 0.0000 0.0000 19.6175 2.0318 1.4452 59.1025 9.5832 29.2327 0.6794 28.5199 -1.4006 -5.8753 2.5691 -0.3805 0.0000 0.0000 0.0000 3.0775 4.9333 -9.7202 0.2087 19.4317 3.4984 3.3712 -0.3472 0.3454 -0.0000 0.0000 -0.0000
61.1999 39.4211 -4.6576 -9.0108 53.5975 -2.2051 0.0000 0.0000 0.0000 -4.4195 -7.6229 -6.2058 -4.0395 -6.9547 23.2794 14.1853 -2.1121 5.6857 -0.0000 -0.0000 0.0000 0.0000 0.0000 0.0000 -11.6143 0.1359 -6.2905 1.2451 -0.1142 25.9179 0.0000 0.0000 0.0000 -3.3358 27.9247 -20.3659 0.0000 0.0000 0.0000 -16.2496 -4.2377 1.7792 -49.1019 -25.8595 23.6438 -177.5971 -60.5975 160.7554 1.8843 0.4167 -0.0836 0.0000 0.0000 0.0000 19.6141 2.2134 1.4925 59.0870 9.3765 29.5129 0.6897 28.9296 -1.5504 -5.7930 2.4197 -0.3686 0.0000 0.0000 0.0000 2.9863 4.7611 -9.6036 0.0018 19.1234 2.9231 3.3517 -0.3668 0.9536 -0.0000 0.0000 -0.0000
60.9794 39.4201 -4.5565 -8.2924 53.9075 -1.7323 0.0000 0.0000 0.0000 -4.9487 -7.7445 -4.9701 -4.4218 -8.0924 21.9775 14.3076 -2.1585 5.9042 -0.0000 -0.0000 0.0000 0.0000 0.0000 0.0000 -11.5440 0.0815 -6.7394 0.9225 0.0175 25.9423 0.0000 0.0000 0.0000 -3.2723 27.7720 -20.2631 0.0000 0.0000 0.0000 -15.9862 -3.9642 1.6983 -49.0624 -25.9338 22.3215 -177.5850 -60.7103 160.6890 1.7227 0.4493 -0.0765 0.0000 0.0000 0.0000 19.8227 2.4016 1.5529 59.0291 9.3648 29.9377 0.6926 29.0723 -1.5882 -5.8396 2.4388 -0.3726 0.0000 0.0000 0.0000 2.8339 4.5456 -9.4827 -0.1655 19.0069 2.3802 3.2821 -0.3799 1.5407 -0.0000 0.0000 -0.0000
60.7378 39.4277 -4.4354 -7.5816 54.3104 -1.2807 0.0000 0.0000 0.0000 -5.3476 -7.8632 -3.4884 -4.5492 -9.1097 19.9643 15.6594 -2.3488 5.7809 -0.0000 -0.0000 0.0000 0.0000 0.0000 0.0000 -11.4319 0.0823 -7.4193 0.7591 0.1758 26.1397 0.0000 0.0000 0.0000 -3.1210 27.4249 -19.9302 0.0000 0.0000 0.0000 -15.9120 -3.9222 1.6838 -48.8160 -26.0858 21.0187 -177.5437 -61.8418 161.2071 1.3752 0.4843 -0.0617 0.0000 0.0000 0.0000 19.8355 2.4552 1.5677 59.2113 9.4843 30.2224 0.6854 28.9827 -1.4633 -5.9940 2.6637 -0.3928 0.0000 0.0000 0.0000 2.7573 4.4403 -9.3434 -0.4653 18.6394 1.7946 3.2879 -0.4023 2.1570 -0.0000 0.0000 -0.0000
60.4786 39.4388 -4.3036 -6.6747 54.9031 -0.7474 0.0000 0.0000 0.0000 -5.7255 -7.7824 -1.7318 -4.2528 -9.6152 17.3142 17.9666 -2.5711 4.9482 -0.0000 -0.0000 0.0000 0.0000 0.0000 0.0000 -11.6502 0.1227 -8.0671 1.1463 0.1803 26.2855 0.0000 0.0000 0.0000 -3.0067 27.0304 -19.3460 0.0000 0.0000 0.0000 -16.2626 -4.0684 1.7413 -48.0543 -26.2325 19.7496 -177.4734 -64.2743 162.6645 1.0967 0.4112 -0.0501 0.0000 0.0000 0.0000 19.5165 2.4086 1.5379 59.5810 9.5365 30.3131 0.6801 28.9630 -1.3670 -5.9647 2.7269 -0.3935 0.0000 0.0000 0.0000 2.5984 4.2989 -9.0672 -0.8916 18.1548 1.0193 3.4150 -0.4435 2.8772 -0.0000 0.0000 -0.0000
60.1989 39.4410 -4.1717 -5.4268 55.3988 0.0172 0.0000 0.0000 0.0000 -6.1326 -7.3586 -0.0411 -3.8443 -9.8887 14.6781 19.8005 -2.5982 3.5419 -0.0000 -0.0000 0.0000 0.0000 0.0000 0.0000 -11.9173 0.2212 -8.6595 1.5151 0.2672 26.3454 0.0000 0.0000 0.0000 -2.9799 26.7375 -18.7177 0.0000 0.0000 0.0000 -16.7573 -4.2165 1.8103 -46.8948 -26.2699 18.7564 -177.3399 -67.9165 164.7840 1.1741 0.0903 -0.0541 0.0000 0.0000 0.0000 19.1524 2.3662 1.5070 59.9162 9.5173 30.3525 0.6762 29.1431 -1.2756 -5.7665 2.5482 -0.3722 0.0000 0.0000 0.0000 2.2735 3.9881 -8.6445 -1.2970 17.9615 0.0228 3.5037 -0.4866 3.7423 -0.0000 0.0000 -0.0000
